<?xml version="1.0" encoding="utf-8"?>
<!-- Generator: Adobe Illustrator 27.5.0, SVG Export Plug-In . SVG Version: 6.00 Build 0)  -->
<svg version="1.1" id="Layer_1" xmlns="http://www.w3.org/2000/svg" xmlns:xlink="http://www.w3.org/1999/xlink" x="0px" y="0px"
	 viewBox="0 0 319.5 112.2" style="enable-background:new 0 0 319.5 112.2;" xml:space="preserve">
<path d="M106.8,65.5l0.1-0.2c10.5-10.7,10.5-27.9-0.1-38.5c-7.4-7.4-18.1-9.7-27.5-6.8c-0.1-5.1-2.1-10.2-6-14
	C65.8-1.4,54-1.9,46,4.5c0,0,0,0-0.1,0l0,0l-3,3l-0.2,0.2l-6.2,6.2l22.3,22.3l6.6,6.6l3.2,3.2l6.5,6.4l19.5,19.5
	c7.1,7.1,7,18.6-0.1,25.7s-18.6,7.1-25.8,0L49.4,78.3L39.2,68l-5-5.1l-7.1-7l-6.5-6.4l-3.3-3.3l-5-4.9c-0.5-0.5-1-1-1.4-1.7
	c-3-4.5-2.6-10.5,1.3-14.4s10-4.5,14.3-1.4c0.6,0.4,1.2,0.9,1.8,1.4l46.6,46.6c0.9,0.9,1.3,2.1,1.3,3.2c0,1.2-0.4,2.3-1.3,3.2
	c-1.8,1.8-4.6,1.8-6.5,0L46.2,55.7c-1.4-1.5-3.7-1.8-5.4-0.8c-0.4,0.2-0.8,0.4-1,0.8c-0.4,0.4-0.5,0.6-0.8,1c-1,1.7-0.6,4,0.8,5.4
	l22.5,22.5c5.4,5.4,14,5.4,19.3,0c5.4-5.4,5.4-14,0-19.3L39.8,23.5l-6.5-6.3c-8-6.5-19.8-6-27.2,1.5C-1.5,26.2-2,38.1,4.5,46.1
	c0.4,0.5,0.9,1,1.5,1.6l8.2,8.2l6.5,6.5l16,16l6.4,6.5l19.5,19.3c10.7,10.7,28,10.7,38.6,0c9.7-9.7,10.6-24.9,2.6-35.6L106.8,65.5z
	 M68.3,26.6l-3.1,3.1l-8.7-8.6l-0.9-0.9L49.4,14l3-3c4.5-2.9,10.5-2.6,14.4,1.3C70.6,16.2,71.3,22.3,68.3,26.6z M87,51.3L75.2,39.6
	l0,0l-3.4-3.3l3-3l0.5-0.5l0.2-0.2c7.2-6.3,18-6,24.9,0.9c7,7,7.1,18.4,0.2,25.6l-0.1,0.1L97.7,62L87,51.3z"/>
<g>
	<path d="M178.3,81.8c-3,0-5.5-0.5-7.6-1.5c-2-1-3.8-2.3-5.4-4l0.9-2.5v7h-11.5V16.1h11.4v35v-3.7c1.4-1.2,3.3-2.2,5.7-3
		c2.3-0.8,5-1.2,8-1.2c3.1,0,6,0.7,8.5,2.2c2.6,1.5,4.6,3.6,6.2,6.4c1.6,2.8,2.3,6.2,2.3,10.3c0,4-0.9,7.5-2.6,10.5
		c-1.7,3-4,5.2-6.8,6.8C184.6,81,181.5,81.8,178.3,81.8z M175.7,72.1c1.7,0,3.3-0.4,4.7-1.3s2.6-2.1,3.5-3.6s1.3-3.3,1.3-5.2
		s-0.4-3.6-1.3-5.1c-0.9-1.5-2-2.6-3.5-3.5c-1.4-0.8-3-1.3-4.7-1.3c-1.5,0-2.9,0.2-4.1,0.7c-1.3,0.5-2.4,1.1-3.3,2
		c-0.9,0.8-1.6,1.9-2.1,3.1v8.8c0.7,1.2,1.4,2.2,2.3,3c0.9,0.8,2,1.4,3.2,1.8C172.9,71.9,174.2,72.1,175.7,72.1z"/>
	<path d="M218.4,81l-17.5-36h12.9l13.5,30.3L218.4,81z M208.8,98l23.8-53H243l-23.2,53H208.8z"/>
	<path d="M260,45l1.1,9.8l-0.2-1.5c1-2.1,2.5-3.9,4.3-5.5c1.8-1.5,3.6-2.7,5.4-3.5s3.1-1.2,4.1-1.2l-0.6,11.5
		c-2.7-0.3-5,0.1-6.9,1.3s-3.4,2.8-4.4,4.8s-1.6,4-1.6,6.1v14h-11.4V45H260z"/>
	<path d="M278.9,62.4c0-3.7,0.9-6.9,2.6-9.8c1.7-2.9,4.1-5.2,7.3-6.8c3.1-1.7,6.7-2.5,10.7-2.5c4.1,0,7.7,0.8,10.7,2.5
		s5.3,4,6.9,6.8c1.6,2.9,2.4,6.2,2.4,9.8c0,3.7-0.8,7-2.4,9.9s-3.9,5.2-6.9,6.9c-3,1.7-6.6,2.5-10.8,2.5c-3.9,0-7.4-0.8-10.5-2.3
		s-5.5-3.7-7.3-6.6C279.7,70,278.9,66.5,278.9,62.4z M290.4,62.5c0,1.9,0.4,3.5,1.1,5c0.8,1.5,1.8,2.7,3.1,3.6
		c1.3,0.9,2.8,1.3,4.4,1.3c1.8,0,3.4-0.4,4.7-1.3c1.3-0.9,2.3-2.1,3-3.6s1.1-3.2,1.1-5c0-1.9-0.4-3.6-1.1-5.1s-1.7-2.7-3-3.5
		c-1.3-0.9-2.9-1.3-4.7-1.3c-1.6,0-3.1,0.4-4.4,1.3c-1.3,0.9-2.4,2-3.1,3.5S290.4,60.6,290.4,62.5z"/>
</g>
</svg>
